<svg xmlns="http://www.w3.org/2000/svg" version="1.1" xmlns:xlink="http://www.w3.org/1999/xlink" width="1500" height="1500" viewBox="0 0 1500 1500"><rect width="1500" height="1500" x="0" y="0" id="background" stroke="transparent" fill="#ececea"></rect><svg xml:space="preserve" width="1000" height="1000" data-version="2" data-id="lg_c3yISqWV2FmVZUnp8G" viewBox="0 0 673 152" x="250" y="250"><rect width="100%" height="100%" fill="transparent"></rect><path fill="#009b7d" fill-rule="evenodd" d="M18.837 1.491c6.811 0 12.35 6.183 12.35 13.911 0 7.637-5.539 13.91-12.35 13.91s-12.35-6.182-12.35-13.91c0-7.638 5.539-13.91 12.35-13.91m-7.99 97.83v43.188c0 3.364 2.814 6.182 6.174 6.182h3.724c3.36 0 6.175-2.818 6.175-6.182V99.322h4.267V56.137l7.63 7.637c1.453 1.453 3.541 1.999 5.448 1.726h.454c.545-.09 1.09-.363 1.635-.636l21.341-12.365c2.908-1.726 3.907-5.456 2.272-8.456-1.727-2.908-5.45-3.907-8.447-2.271l-17.255 10L28.917 36.68c-2.724-2.635-5.902-5.092-9.99-5.092-6.81 0-12.35 5.547-12.35 12.365v55.464h4.27zM104.93 63.59l22.158-5.91 10.717-10.73-.091-.635c-1-6.728 3.723-13.001 10.444-14.003 6.72-1 12.986 3.73 13.984 10.457l7.901 54.917-4.177.636v44.188c0 3.364-2.815 6.182-6.176 6.182h-3.723c-3.36 0-6.175-2.818-6.175-6.182v-41.823l-4.178.636-5.629-39.098-4.812 4.818a6.342 6.342 0 0 1-3.18 2.092L108.11 75.5c-3.271.908-6.63-1.09-7.538-4.364-.909-3.273 1.09-6.638 4.36-7.547m35.326-60.463c-6.813 0-12.352 6.184-12.352 13.911 0 7.638 5.539 13.911 12.35 13.911s12.35-6.182 12.35-13.91c0-7.637-5.539-13.91-12.35-13.91"></path><rect width="22.59" height="22.61" x="-11.29" y="-11.3" fill="#009b7d" fill-rule="evenodd" rx="4.5" ry="4.5" transform="translate(88.13 128.06)scale(1.8173)"></rect><path fill="#009b7d" fill-rule="evenodd" d="M75.778 62.316h24.608c.636 0 1.182.09 1.818.182-2.999 1.819-4.633 5.548-3.635 9.094 1.181 4.363 5.725 7 10.082 5.819v17.73c0 4.544-3.725 8.182-8.174 8.182H75.871c-4.541 0-8.174-3.729-8.174-8.183V70.5c0-4.546 3.725-8.182 8.174-8.182zM47.172 26.86l21.25-12.549c3.905-2.271 8.99-1 11.262 2.91l12.532 21.277c2.271 3.907 1 9-2.908 11.272l-21.25 12.549c-3.541 2.09-7.9 1.181-10.444-1.82l11.08-6.363c3.906-2.272 5.267-7.366 2.999-11.275-2.272-3.909-7.358-5.274-11.262-3L49.17 46.406l-4.814-8.275c-2.27-3.907-1-9 2.908-11.272z"></path><path fill="#ffbf5d" d="M244.391 118.26V98.42h-8.96v19.68q0 6.72 1.76 11.6t5.28 7.92q3.52 3.04 8.8 4.48 5.28 1.44 12.16 1.44l.96-7.52q-4.8 0-8.56-.88-3.76-.88-6.24-2.96-2.48-2.08-3.84-5.52-1.36-3.44-1.36-8.4m-37.92-73.28V96.5q0 10.4 4.56 17.44 4.56 7.04 12.24 10.56 7.68 3.52 17.12 3.52 9.92 0 17.52-3.84t11.84-10.88q4.24-7.04 4.24-16.8V45.14q0-15.68-8.8-24.56-8.8-8.88-24.64-8.88t-24.96 8.48q-9.12 8.48-9.12 24.8m9.12 51.36v-52.8q0-7.84 3.04-12.96 3.04-5.12 8.56-7.76 5.52-2.64 12.88-2.64 7.68 0 13.28 2.64t8.64 7.76q3.04 5.12 3.04 12.96v52.8q0 7.84-3.2 13.04-3.2 5.2-8.8 7.68-5.6 2.48-12.96 2.48-7.04 0-12.56-2.64-5.52-2.64-8.72-7.76-3.2-5.12-3.2-12.8"></path><rect width="67.52" height="131.84" x="-33.76" y="-65.92" fill="none" rx="0" ry="0" transform="translate(240.73 78.12)"></rect><path fill="#ffbf5d" d="M339.111 118.58v7.68h8.96V46.1h-8.96v52.48q0 4.32-1.6 8-1.6 3.68-4.56 6.56-2.96 2.88-6.96 4.48-4 1.6-8.8 1.6-6.08 0-10.4-2t-6.56-6.48q-2.24-4.48-2.24-11.84V46.1h-9.12v55.04q0 5.44 1.2 9.76 1.2 4.32 3.52 7.52 2.32 3.2 5.76 5.28t7.84 3.12q4.4 1.04 9.68 1.04 4 0 8.16-1.04t7.84-3.12q3.68-2.08 6.24-5.12"></path><rect width="59.2" height="81.76" x="-29.6" y="-40.88" fill="none" rx="0" ry="0" transform="translate(318.97 87.48)"></rect><path fill="#ffbf5d" d="M422.791 96.66V75.7q0-14.72-7.52-23.04-7.52-8.32-21.76-8.32-9.44 0-16.16 3.6-6.72 3.6-10.24 10.56-3.52 6.96-3.52 17.2v20.96q0 8.64 3.36 15.68 3.36 7.04 10.16 11.28 6.8 4.24 16.72 4.24 14.56 0 21.76-8.56 7.2-8.56 7.2-22.64m-8.96-20.96v22.56q0 6.56-2.16 11.44t-6.64 7.52q-4.48 2.64-11.2 2.64-6.4 0-11.2-2.72-4.8-2.72-7.44-7.6-2.64-4.88-2.64-11.28V75.7q0-7.68 2.4-12.88 2.4-5.2 7.12-7.84 4.72-2.64 11.76-2.64t11.44 2.64q4.4 2.64 6.48 7.84 2.08 5.2 2.08 12.88"></path><rect width="59.2" height="83.52" x="-29.6" y="-41.76" fill="none" rx="0" ry="0" transform="translate(393.7 86.6)"></rect><path fill="#ffbf5d" d="m480.551 52.5.64-7.68-2.16-.32q-2.16-.32-5.04-.16-8.64.48-14.96 2.4t-12.24 4.64V46.1h-9.12v80.16h9.12V60.82q2.24-1.44 5.44-2.96t6.88-2.72q3.68-1.2 7.52-1.92 3.84-.72 7.2-.88 2.72-.16 4.72 0z"></path><rect width="43.52" height="82.03" x="-21.76" y="-41.01" fill="none" rx="0" ry="0" transform="translate(459.93 85.75)"></rect><path fill="#ffbf5d" d="M547.751 96.66V75.7q0-14.72-7.52-23.04-7.52-8.32-21.76-8.32-9.44 0-16.16 3.6-6.72 3.6-10.24 10.56-3.52 6.96-3.52 17.2v20.96q0 8.64 3.36 15.68 3.36 7.04 10.16 11.28 6.8 4.24 16.72 4.24 14.56 0 21.76-8.56 7.2-8.56 7.2-22.64m-8.96-20.96v22.56q0 6.56-2.16 11.44t-6.64 7.52q-4.48 2.64-11.2 2.64-6.4 0-11.2-2.72-4.8-2.72-7.44-7.6-2.64-4.88-2.64-11.28V75.7q0-7.68 2.4-12.88 2.4-5.2 7.12-7.84 4.72-2.64 11.76-2.64t11.44 2.64q4.4 2.64 6.48 7.84 2.08 5.2 2.08 12.88"></path><rect width="59.2" height="83.52" x="-29.6" y="-41.76" fill="none" rx="0" ry="0" transform="translate(518.65 86.6)"></rect><path fill="#ffbf5d" d="M657.031 71.54v54.72h8.48V71.22q0-6.4-1.6-11.36-1.6-4.96-4.88-8.32-3.28-3.36-8.16-5.04-4.88-1.68-11.6-1.68-4.48 0-8.96 1.12t-8.64 3.12q-4.16 2-7.68 4.72-2.08-2.88-5.2-4.88t-7.2-3.04q-4.08-1.04-9.2-1.04-4 0-7.52.88-3.52.88-6.72 2.4-3.2 1.52-6.4 3.6v-5.44h-9.12v80h9.12V58.58q3.36-1.92 6.24-3.2 2.88-1.28 6-1.92 3.12-.64 6.8-.64 3.84 0 7.36.88 3.52.88 6.16 3.04t4.24 5.76q1.6 3.6 1.6 9.04v54.72h8.32V71.22q0-3.36-.4-6.32-.4-2.96-1.36-5.52 3.84-2.4 7.44-3.84 3.6-1.44 7.04-2.08 3.44-.64 6.48-.64 3.84 0 7.28.88 3.44.88 6.16 3.04t4.32 5.76q1.6 3.6 1.6 9.04"></path><rect width="102.88" height="81.44" x="-51.44" y="-40.72" fill="none" rx="0" ry="0" transform="translate(614.57 86.04)"></rect></svg></svg>