<?xml version="1.0" encoding="UTF-8"?>
<!DOCTYPE svg PUBLIC "-//W3C//DTD SVG 1.1//EN" "http://www.w3.org/Graphics/SVG/1.1/DTD/svg11.dtd">
<svg xmlns="http://www.w3.org/2000/svg" version="1.1" width="556px" height="154px" style="shape-rendering:geometricPrecision; text-rendering:geometricPrecision; image-rendering:optimizeQuality; fill-rule:evenodd; clip-rule:evenodd" xmlns:xlink="http://www.w3.org/1999/xlink">
<g><path style="opacity:1" fill="#fefefe" d="M -0.5,-0.5 C 184.833,-0.5 370.167,-0.5 555.5,-0.5C 555.5,50.8333 555.5,102.167 555.5,153.5C 370.167,153.5 184.833,153.5 -0.5,153.5C -0.5,102.167 -0.5,50.8333 -0.5,-0.5 Z"/></g>
<g><path style="opacity:1" fill="#d0a73b" d="M 48.5,22.5 C 79.006,23.5808 93.506,39.2475 92,69.5C 88.2913,86.2093 78.1247,96.7093 61.5,101C 54.8539,102.566 48.1872,102.732 41.5,101.5C 39.1459,101.511 37.1459,102.344 35.5,104C 49.1267,104.926 62.6267,106.759 76,109.5C 81.8637,109.164 86.697,106.831 90.5,102.5C 91.6888,101.571 93.0222,101.238 94.5,101.5C 94.4956,115.504 87.4956,122.504 73.5,122.5C 68.0703,122.31 62.737,121.476 57.5,120C 49.6759,116.255 42.0092,112.255 34.5,108C 29.3114,106.202 23.9781,105.369 18.5,105.5C 18.5,104.5 18.5,103.5 18.5,102.5C 24.1983,103.168 29.5317,102.168 34.5,99.5C 13.9781,87.7827 6.81146,70.4494 13,47.5C 20.3527,32.6256 32.186,24.2922 48.5,22.5 Z"/></g>
<g><path style="opacity:1" fill="#d0a739" d="M 100.5,23.5 C 108.5,23.5 116.5,23.5 124.5,23.5C 123.772,27.4063 121.938,30.7396 119,33.5C 118.333,45.5 118.333,57.5 119,69.5C 120.042,79.4281 124.542,87.2614 132.5,93C 148.948,98.0238 159.448,92.1905 164,75.5C 165.56,60.8742 165.894,46.2075 165,31.5C 164.385,29.8839 163.385,28.5505 162,27.5C 161.51,26.2068 161.343,24.8734 161.5,23.5C 165.833,23.5 170.167,23.5 174.5,23.5C 174.12,26.7449 172.953,29.7449 171,32.5C 170.667,45.5 170.333,58.5 170,71.5C 164.086,99.6852 147.919,108.185 121.5,97C 112.609,90.054 107.775,80.8873 107,69.5C 106.667,57.8333 106.333,46.1667 106,34.5C 103.602,31.0367 101.768,27.3701 100.5,23.5 Z"/></g>
<g><path style="opacity:1" fill="#fefefd" d="M 39.5,27.5 C 53.3455,26.1752 64.1788,31.1752 72,42.5C 79.058,53.9037 81.3913,66.237 79,79.5C 75.2628,92.4355 66.7628,98.6021 53.5,98C 36.3029,90.1045 26.8029,76.6045 25,57.5C 23.0814,44.0256 27.9147,34.0256 39.5,27.5 Z"/></g>
<g><path style="opacity:1" fill="#d2aa40" d="M 264.5,93.5 C 263.833,93.5 263.5,93.8333 263.5,94.5C 261.217,97.9563 258.717,101.29 256,104.5C 254.184,103.671 252.351,102.837 250.5,102C 264.914,88.8655 267.414,73.6988 258,56.5C 253.15,50.3225 246.984,45.9891 239.5,43.5C 233.766,47.4456 228.099,47.4456 222.5,43.5C 215.275,45.9423 209.275,50.1089 204.5,56C 203.668,56.6877 203.002,56.521 202.5,55.5C 201.515,53.9017 201.349,52.235 202,50.5C 206.45,46.2019 211.283,42.5352 216.5,39.5C 218.915,36.8997 221.249,34.0663 223.5,31C 228.484,29.0794 233.484,29.0794 238.5,31C 241.065,33.2949 242.731,36.1282 243.5,39.5C 263.127,48.0768 271.293,63.0768 268,84.5C 266.727,87.4893 265.561,90.4893 264.5,93.5 Z"/></g>
<g><path style="opacity:1" fill="#d1a83c" d="M 283.5,30.5 C 298.17,30.3334 312.837,30.5001 327.5,31C 344.569,36.9659 350.735,48.7993 346,66.5C 341.42,75.4184 334.253,80.9184 324.5,83C 350.446,109.153 381.113,116.82 416.5,106C 418.996,104.92 421.33,103.586 423.5,102C 426.735,98.5951 430.068,95.4285 433.5,92.5C 436.188,95.3617 438.521,98.5283 440.5,102C 402.96,122.245 365.96,121.245 329.5,99C 323.479,93.977 317.812,88.6436 312.5,83C 309.518,82.502 306.518,82.3354 303.5,82.5C 303.334,90.84 303.5,99.1733 304,107.5C 307.37,109.674 309.203,112.674 309.5,116.5C 300.833,116.5 292.167,116.5 283.5,116.5C 283.343,115.127 283.51,113.793 284,112.5C 286.043,110.792 287.71,108.792 289,106.5C 289.667,84.5 289.667,62.5 289,40.5C 287.71,38.208 286.043,36.208 284,34.5C 283.51,33.2068 283.343,31.8734 283.5,30.5 Z"/></g>
<g><path style="opacity:1" fill="#d0a83b" d="M 386.5,29.5 C 406.607,28.4625 419.774,37.4625 426,56.5C 428.245,74.1771 421.412,87.0105 405.5,95C 377.8,101.323 361.8,90.4899 357.5,62.5C 359.738,44.931 369.405,33.931 386.5,29.5 Z"/></g>
<g><path style="opacity:1" fill="#d0a73b" d="M 525.5,103.5 C 526.663,83.3375 526.829,63.0042 526,42.5C 525.283,43.0442 524.783,43.7109 524.5,44.5C 515.551,65.3965 506.884,86.3965 498.5,107.5C 493.786,107.827 489.12,107.493 484.5,106.5C 475.667,86.1667 466.833,65.8333 458,45.5C 457.333,66.8333 457.333,88.1667 458,109.5C 459.903,111.441 460.736,113.774 460.5,116.5C 455.833,116.5 451.167,116.5 446.5,116.5C 446.83,112.979 448.33,109.979 451,107.5C 451.667,85.5 451.667,63.5 451,41.5C 450.07,38.6384 448.403,36.305 446,34.5C 445.51,33.2068 445.343,31.8734 445.5,30.5C 452.2,30.17 458.866,30.5033 465.5,31.5C 475.569,54.8747 485.736,78.208 496,101.5C 505.736,78.1259 515.569,54.7926 525.5,31.5C 532.468,30.503 539.468,30.1697 546.5,30.5C 545.823,34.3748 543.99,37.7082 541,40.5C 540.667,41.8333 540.333,43.1667 540,44.5C 539.333,64.5 539.333,84.5 540,104.5C 540.861,107.368 542.528,109.702 545,111.5C 546.009,113.025 546.509,114.692 546.5,116.5C 537.5,116.5 528.5,116.5 519.5,116.5C 521.757,112.317 523.757,107.984 525.5,103.5 Z"/></g>
<g><path style="opacity:1" fill="#e9d29b" d="M 215.5,39.5 C 214.127,39.3433 212.793,39.51 211.5,40C 209.816,41.7396 207.982,42.9063 206,43.5C 203.051,42.5629 200.217,41.5629 197.5,40.5C 196.89,39.609 196.557,38.609 196.5,37.5C 197.976,35.5 199.809,33.8334 202,32.5C 203.147,33.4581 204.147,33.1247 205,31.5C 205.971,32.1984 207.137,32.1984 208.5,31.5C 212.171,32.1839 215.338,33.1839 218,34.5C 217.942,36.4354 217.109,38.1021 215.5,39.5 Z"/></g>
<g><path style="opacity:1" fill="#fefefe" d="M 303.5,34.5 C 310.175,34.3337 316.842,34.5004 323.5,35C 337.603,40.7075 342.436,50.8741 338,65.5C 334.935,72.2275 329.769,76.3942 322.5,78C 316.175,78.4995 309.842,78.6662 303.5,78.5C 303.5,63.8333 303.5,49.1667 303.5,34.5 Z"/></g>
<g><path style="opacity:1" fill="#fcfaf4" d="M 226.5,35.5 C 229.572,35.1826 232.572,35.5159 235.5,36.5C 234,36.8333 232.5,37.1667 231,37.5C 229.014,37.4313 227.514,36.7647 226.5,35.5 Z"/></g>
<g><path style="opacity:1" fill="#fefefd" d="M 384.5,35.5 C 398.365,36.1832 407.532,43.1832 412,56.5C 415.956,67.0415 414.956,77.0415 409,86.5C 398.228,94.1196 388.561,92.7863 380,82.5C 371.795,71.334 369.461,59.0006 373,45.5C 375.194,40.1709 379.027,36.8375 384.5,35.5 Z"/></g>
<g><path style="opacity:1" fill="#d0a73a" d="M 196.5,37.5 C 196.557,38.609 196.89,39.609 197.5,40.5C 196.848,41.4486 196.514,42.6153 196.5,44C 201.249,60.9923 210.416,75.159 224,86.5C 225.333,85.1667 226.667,83.8333 228,82.5C 229.709,89.7543 230.876,97.0877 231.5,104.5C 224.388,103.207 217.388,101.707 210.5,100C 212.329,98.8867 213.163,97.3867 213,95.5C 206.929,88.9363 201.096,82.2697 195.5,75.5C 193.714,71.9286 191.881,68.2619 190,64.5C 183.661,53.306 185.828,44.306 196.5,37.5 Z"/></g>
<g><path style="opacity:1" fill="#eedeb5" d="M 224.5,38.5 C 226.476,39.4271 226.809,40.7605 225.5,42.5C 224.571,41.3112 224.238,39.9778 224.5,38.5 Z"/></g>
<g><path style="opacity:1" fill="#f6edd8" d="M 236.5,38.5 C 237.797,39.8488 237.63,41.1821 236,42.5C 235.421,41.0715 235.588,39.7382 236.5,38.5 Z"/></g>
<g><path style="opacity:1" fill="#e7ce92" d="M 227.5,39.5 C 229.67,40.768 231.837,40.768 234,39.5C 234.494,41.1341 234.66,42.8008 234.5,44.5C 232.326,44.0798 230.326,44.0798 228.5,44.5C 227.548,42.9547 227.215,41.288 227.5,39.5 Z"/></g>
<g><path style="opacity:1" fill="#ecdcb1" d="M 525.5,103.5 C 525.83,83.6596 525.497,63.9929 524.5,44.5C 524.783,43.7109 525.283,43.0442 526,42.5C 526.829,63.0042 526.663,83.3375 525.5,103.5 Z"/></g>
<g><path style="opacity:1" fill="#fdfbf6" d="M 215.5,39.5 C 215.833,39.5 216.167,39.5 216.5,39.5C 211.283,42.5352 206.45,46.2019 202,50.5C 201.349,52.235 201.515,53.9017 202.5,55.5C 203.002,56.521 203.668,56.6877 204.5,56C 209.275,50.1089 215.275,45.9423 222.5,43.5C 228.099,47.4456 233.766,47.4456 239.5,43.5C 246.984,45.9891 253.15,50.3225 258,56.5C 267.414,73.6988 264.914,88.8655 250.5,102C 252.351,102.837 254.184,103.671 256,104.5C 258.717,101.29 261.217,97.9563 263.5,94.5C 264.267,95.172 264.934,96.0053 265.5,97C 264.167,98.3333 262.833,99.6667 261.5,101C 261.854,102.626 261.854,104.459 261.5,106.5C 260.5,106.5 259.5,106.5 258.5,106.5C 253.229,105.7 248.229,104.034 243.5,101.5C 239.753,103.739 236.42,106.573 233.5,110C 234.056,110.383 234.389,110.883 234.5,111.5C 233.833,111.5 233.5,111.833 233.5,112.5C 230.827,112.316 230.16,111.149 231.5,109C 222.652,107.236 213.985,104.903 205.5,102C 206.357,101.311 207.023,100.478 207.5,99.5C 202.738,92.2002 198.738,84.5336 195.5,76.5C 195.5,76.1667 195.5,75.8333 195.5,75.5C 201.096,82.2697 206.929,88.9363 213,95.5C 213.163,97.3867 212.329,98.8867 210.5,100C 217.388,101.707 224.388,103.207 231.5,104.5C 230.876,97.0877 229.709,89.7543 228,82.5C 226.667,83.8333 225.333,85.1667 224,86.5C 210.416,75.159 201.249,60.9923 196.5,44C 196.514,42.6153 196.848,41.4486 197.5,40.5C 200.217,41.5629 203.051,42.5629 206,43.5C 207.982,42.9063 209.816,41.7396 211.5,40C 212.793,39.51 214.127,39.3433 215.5,39.5 Z"/></g>
<g><path style="opacity:1" fill="#d3ad48" d="M 226.5,49.5 C 246.683,49.5146 256.516,59.5146 256,79.5C 253.467,91.8673 245.967,98.8673 233.5,100.5C 233.5,99.5 233.5,98.5 233.5,97.5C 243.437,96.3998 249.937,91.0665 253,81.5C 255.094,64.6022 247.761,54.9355 231,52.5C 221.301,53.2668 214.134,57.9334 209.5,66.5C 207.115,65.1866 206.948,63.5199 209,61.5C 213.505,55.3482 219.338,51.3482 226.5,49.5 Z"/></g>
<g><path style="opacity:1" fill="#cfa636" d="M 229.5,55.5 C 230.5,55.5 231.5,55.5 232.5,55.5C 232.5,57.8333 232.5,60.1667 232.5,62.5C 231.5,62.5 230.5,62.5 229.5,62.5C 229.5,60.1667 229.5,57.8333 229.5,55.5 Z"/></g>
<g><path style="opacity:1" fill="#d6b253" d="M 239.5,58.5 C 240.712,60.2637 240.379,61.9303 238.5,63.5C 237.799,61.8084 238.133,60.1417 239.5,58.5 Z"/></g>
<g><path style="opacity:1" fill="#d2ab44" d="M 223.5,57.5 C 224.675,57.281 225.675,57.6143 226.5,58.5C 228.076,62.6501 229.909,66.6501 232,70.5C 234.51,67.3354 237.676,65.3354 241.5,64.5C 239.574,69.6154 236.574,74.1154 232.5,78C 229.524,78.7572 227.691,77.5906 227,74.5C 225.305,68.9226 224.138,63.2559 223.5,57.5 Z"/></g>
<g><path style="opacity:1" fill="#dab963" d="M 214.5,65.5 C 216.394,66.0476 218.06,67.0476 219.5,68.5C 218.998,69.521 218.332,69.6877 217.5,69C 215.937,68.2411 214.937,67.0744 214.5,65.5 Z"/></g>
<g><path style="opacity:1" fill="#d8b358" d="M 245.5,65.5 C 247.337,65.6395 247.67,66.3061 246.5,67.5C 241.586,68.8694 241.253,68.2028 245.5,65.5 Z"/></g>
<g><path style="opacity:1" fill="#fbf8ef" d="M 230.5,73.5 C 232.625,74.3676 232.791,75.3676 231,76.5C 229.317,75.8235 229.15,74.8235 230.5,73.5 Z"/></g>
<g><path style="opacity:1" fill="#d4af4c" d="M 244.5,73.5 C 246.527,73.3379 248.527,73.5045 250.5,74C 251.833,75 251.833,76 250.5,77C 248.5,77.6667 246.5,77.6667 244.5,77C 243.316,75.8545 243.316,74.6879 244.5,73.5 Z"/></g>
<g><path style="opacity:1" fill="#d5b150" d="M 214.5,74.5 C 216.093,73.1328 217.426,73.4661 218.5,75.5C 218.167,75.8333 217.833,76.1667 217.5,76.5C 216.482,75.8075 215.482,75.1408 214.5,74.5 Z"/></g>
<g><path style="opacity:1" fill="#d7b356" d="M 242.5,83.5 C 244.264,82.2878 245.93,82.6212 247.5,84.5C 247.167,84.8333 246.833,85.1667 246.5,85.5C 245.378,84.3698 244.044,83.7031 242.5,83.5 Z"/></g>
<g><path style="opacity:1" fill="#d6b254" d="M 237.5,87.5 C 239.908,88.3148 240.741,89.9814 240,92.5C 238.906,90.9221 238.072,89.2554 237.5,87.5 Z"/></g>
<g><path style="opacity:1" fill="#ead49f" d="M 266.5,106.5 C 263.91,107.014 261.244,107.014 258.5,106.5C 259.5,106.5 260.5,106.5 261.5,106.5C 261.854,104.459 261.854,102.626 261.5,101C 262.833,99.6667 264.167,98.3333 265.5,97C 264.934,96.0053 264.267,95.172 263.5,94.5C 263.5,93.8333 263.833,93.5 264.5,93.5C 265.5,93.5 266.5,93.5 267.5,93.5C 267.128,90.9783 267.961,88.9783 270,87.5C 270.374,88.4162 270.874,89.2496 271.5,90C 271.042,93.2494 271.042,96.2494 271.5,99C 269.109,100.309 269.109,101.309 271.5,102C 269.917,103.758 268.25,105.258 266.5,106.5 Z"/></g>
<g><path style="opacity:1" fill="#d0a73b" d="M 258.5,106.5 C 261.244,107.014 263.91,107.014 266.5,106.5C 263.667,110.165 260.334,113.332 256.5,116C 253.167,116.667 249.833,116.667 246.5,116C 242.369,114.765 238.369,113.265 234.5,111.5C 234.389,110.883 234.056,110.383 233.5,110C 236.42,106.573 239.753,103.739 243.5,101.5C 248.229,104.034 253.229,105.7 258.5,106.5 Z"/></g>
<g><path style="opacity:1" fill="#d2aa40" d="M 195.5,76.5 C 198.738,84.5336 202.738,92.2002 207.5,99.5C 207.023,100.478 206.357,101.311 205.5,102C 213.985,104.903 222.652,107.236 231.5,109C 230.16,111.149 230.827,112.316 233.5,112.5C 208.429,112.606 194.929,99.9394 193,74.5C 193.708,75.3805 194.542,76.0472 195.5,76.5 Z"/></g>
</svg>
