<?xml version="1.0" encoding="UTF-8"?>
<!DOCTYPE svg PUBLIC "-//W3C//DTD SVG 1.1//EN" "http://www.w3.org/Graphics/SVG/1.1/DTD/svg11.dtd">
<svg xmlns="http://www.w3.org/2000/svg" version="1.1" width="543px" height="121px" style="shape-rendering:geometricPrecision; text-rendering:geometricPrecision; image-rendering:optimizeQuality; fill-rule:evenodd; clip-rule:evenodd" xmlns:xlink="http://www.w3.org/1999/xlink">
<g><path style="opacity:1" fill="#fefefe" d="M -0.5,-0.5 C 180.5,-0.5 361.5,-0.5 542.5,-0.5C 542.5,39.8333 542.5,80.1667 542.5,120.5C 361.5,120.5 180.5,120.5 -0.5,120.5C -0.5,80.1667 -0.5,39.8333 -0.5,-0.5 Z"/></g>
<g><path style="opacity:1" fill="#e8da8e" d="M 89.5,16.5 C 89.17,34.008 89.5033,51.3414 90.5,68.5C 92.8397,82.8248 101.173,88.4915 115.5,85.5C 115.5,86.1667 115.833,86.5 116.5,86.5C 102.896,89.1199 92.3961,84.4533 85,72.5C 82.9377,68.3122 81.271,63.9789 80,59.5C 79.5001,45.504 79.3334,31.504 79.5,17.5C 76.1501,17.665 72.8168,17.4983 69.5,17C 76.1583,16.5004 82.825,16.3337 89.5,16.5 Z"/></g>
<g><path style="opacity:1" fill="#b39055" d="M 130.5,16.5 C 130.17,36.6736 130.503,56.6736 131.5,76.5C 127.572,81.4251 122.572,84.7584 116.5,86.5C 115.833,86.5 115.5,86.1667 115.5,85.5C 122.115,83.3855 126.615,79.0521 129,72.5C 129.5,54.1697 129.667,35.8364 129.5,17.5C 126.15,17.665 122.817,17.4983 119.5,17C 123.152,16.5014 126.818,16.3347 130.5,16.5 Z"/></g>
<g><path style="opacity:1" fill="#a77e43" d="M 130.5,16.5 C 136.842,16.3338 143.175,16.5005 149.5,17C 146.518,17.498 143.518,17.6646 140.5,17.5C 140.667,30.5043 140.5,43.5043 140,56.5C 138.961,64.0672 136.128,70.7339 131.5,76.5C 130.503,56.6736 130.17,36.6736 130.5,16.5 Z"/></g>
<g><path style="opacity:1" fill="#fefefe" d="M 43.5,19.5 C 45.5341,21.9388 47.7007,24.2721 50,26.5C 50.8624,28.087 51.5291,29.7536 52,31.5C 52.6667,44.8333 52.6667,58.1667 52,71.5C 51.6401,73.6079 50.9734,75.6079 50,77.5C 47.8435,80.9759 45.0102,83.6425 41.5,85.5C 34.8678,87.2703 28.5344,86.6037 22.5,83.5C 18.4177,80.9038 15.5844,77.2371 14,72.5C 13.3333,58.5 13.3333,44.5 14,30.5C 15.7078,25.0562 19.2078,21.3895 24.5,19.5C 30.7858,16.9713 37.1191,16.9713 43.5,19.5 Z"/></g>
<g><path style="opacity:1" fill="#dac9a3" d="M 43.5,19.5 C 37.1191,16.9713 30.7858,16.9713 24.5,19.5C 24.5,18.8333 24.1667,18.5 23.5,18.5C 28.2254,16.5993 33.2254,16.0993 38.5,17C 40.4913,17.3736 42.158,18.207 43.5,19.5 Z"/></g>
<g><path style="opacity:1" fill="#f2ebcb" d="M 89.5,16.5 C 92.8499,16.335 96.1832,16.5017 99.5,17C 96.5184,17.498 93.5184,17.6646 90.5,17.5C 90.5,34.5 90.5,51.5 90.5,68.5C 89.5033,51.3414 89.17,34.008 89.5,16.5 Z"/></g>
<g><path style="opacity:1" fill="#efe8ce" d="M 455.5,21.5 C 451.298,21.1832 447.298,21.5166 443.5,22.5C 428.97,21.7923 429.136,21.1256 444,20.5C 448.015,20.5012 451.849,20.8345 455.5,21.5 Z"/></g>
<g><path style="opacity:1" fill="#dbcab6" d="M 513.5,21.5 C 521.343,20.1796 529.343,20.1796 537.5,21.5C 533.893,22.4892 530.226,22.8226 526.5,22.5C 522.366,21.5151 518.032,21.1818 513.5,21.5 Z"/></g>
<g><path style="opacity:1" fill="#9c6e33" d="M 264.5,102.5 C 264.5,75.8333 264.5,49.1667 264.5,22.5C 268.298,21.5166 272.298,21.1832 276.5,21.5C 276.5,48.8333 276.5,76.1667 276.5,103.5C 272.298,103.817 268.298,103.483 264.5,102.5 Z"/></g>
<g><path style="opacity:1" fill="#9d7137" d="M 513.5,21.5 C 518.032,21.1818 522.366,21.5151 526.5,22.5C 526.5,49.1667 526.5,75.8333 526.5,102.5C 522.702,103.483 518.702,103.817 514.5,103.5C 514.824,76.4259 514.491,49.4259 513.5,22.5C 513.5,22.1667 513.5,21.8333 513.5,21.5 Z"/></g>
<g><path style="opacity:1" fill="#e7d98f" d="M 216.5,31.5 C 215.566,32.5676 215.232,33.901 215.5,35.5C 213.784,35.3713 212.117,35.038 210.5,34.5C 209.634,32.1728 208.634,29.8395 207.5,27.5C 204.696,26.3622 201.696,26.1955 198.5,27C 199.044,27.7172 199.711,28.2172 200.5,28.5C 198.586,32.1714 199.586,34.6714 203.5,36C 201.866,36.4935 200.199,36.6602 198.5,36.5C 197.167,36.5 196.5,35.8333 196.5,34.5C 196.815,30.6286 196.482,26.9619 195.5,23.5C 195.611,22.8826 195.944,22.3826 196.5,22C 200.833,21.3333 205.167,21.3333 209.5,22C 212.285,24.9315 214.619,28.0982 216.5,31.5 Z"/></g>
<g><path style="opacity:1" fill="#fefefd" d="M 303.5,22.5 C 306.099,22.5494 308.266,23.5494 310,25.5C 312,36.1667 312,46.8333 310,57.5C 308.982,59.9282 307.148,61.2615 304.5,61.5C 295.5,61.5 286.5,61.5 277.5,61.5C 277.5,48.5 277.5,35.5 277.5,22.5C 286.167,22.5 294.833,22.5 303.5,22.5 Z"/></g>
<g><path style="opacity:1" fill="#fefefe" d="M 399.5,23.5 C 405.794,27.0491 409.961,32.3824 412,39.5C 412.667,54.5 412.667,69.5 412,84.5C 409.029,96.0784 401.529,102.078 389.5,102.5C 385.161,102.718 381.161,101.718 377.5,99.5C 371.76,95.6989 368.26,90.3656 367,83.5C 366.333,68.8333 366.333,54.1667 367,39.5C 373,24.7504 383.834,19.4171 399.5,23.5 Z"/></g>
<g><path style="opacity:1" fill="#c3a883" d="M 513.5,22.5 C 514.491,49.4259 514.824,76.4259 514.5,103.5C 513.833,103.5 513.5,103.167 513.5,102.5C 513.5,76.8333 513.5,51.1667 513.5,25.5C 513.5,24.8333 513.167,24.5 512.5,24.5C 512.328,23.5084 512.662,22.8417 513.5,22.5 Z"/></g>
<g><path style="opacity:1" fill="#ddcc95" d="M 443.5,23.5 C 444.492,23.3284 445.158,23.6618 445.5,24.5C 444.502,50.328 444.169,76.328 444.5,102.5C 444.167,103.833 443.833,103.833 443.5,102.5C 443.5,76.1667 443.5,49.8333 443.5,23.5 Z"/></g>
<g><path style="opacity:1" fill="#eadebf" d="M 192.5,26.5 C 192.192,30.0091 190.192,31.6757 186.5,31.5C 184.83,31.7512 183.33,32.4178 182,33.5C 178.396,33.162 174.562,32.4954 170.5,31.5C 170.5,30.5 170.5,29.5 170.5,28.5C 171.793,26.7041 173.293,25.0375 175,23.5C 175.333,23.8333 175.667,24.1667 176,24.5C 176.804,23.1955 177.971,22.5288 179.5,22.5C 183.949,22.7068 188.283,24.0402 192.5,26.5 Z"/></g>
<g><path style="opacity:1" fill="#fefefd" d="M 207.5,27.5 C 205.283,28.3686 202.95,28.702 200.5,28.5C 199.711,28.2172 199.044,27.7172 198.5,27C 201.696,26.1955 204.696,26.3622 207.5,27.5 Z"/></g>
<g><path style="opacity:1" fill="#cab06b" d="M 455.5,21.5 C 458.872,27.9267 461.872,34.5934 464.5,41.5C 463.761,41.369 463.094,41.5357 462.5,42C 463.598,49.4509 463.598,56.9509 462.5,64.5C 456.315,51.4553 450.649,38.1219 445.5,24.5C 445.158,23.6618 444.492,23.3284 443.5,23.5C 443.5,23.1667 443.5,22.8333 443.5,22.5C 447.298,21.5166 451.298,21.1832 455.5,21.5 Z"/></g>
<g><path style="opacity:1" fill="#dac67f" d="M 43.5,19.5 C 53.3742,23.5539 59.5409,30.8873 62,41.5C 65.8506,60.1558 60.0172,74.8225 44.5,85.5C 43.5,85.5 42.5,85.5 41.5,85.5C 45.0102,83.6425 47.8435,80.9759 50,77.5C 50.9734,75.6079 51.6401,73.6079 52,71.5C 52.6667,58.1667 52.6667,44.8333 52,31.5C 51.5291,29.7536 50.8624,28.087 50,26.5C 47.7007,24.2721 45.5341,21.9388 43.5,19.5 Z"/></g>
<g><path style="opacity:1" fill="#f2e9ae" d="M 207.5,27.5 C 208.634,29.8395 209.634,32.1728 210.5,34.5C 209.653,35.9663 208.32,36.7996 206.5,37C 203.633,37.8007 200.966,37.6341 198.5,36.5C 200.199,36.6602 201.866,36.4935 203.5,36C 199.586,34.6714 198.586,32.1714 200.5,28.5C 202.95,28.702 205.283,28.3686 207.5,27.5 Z"/></g>
<g><path style="opacity:1" fill="#b69353" d="M 170.5,28.5 C 170.5,29.5 170.5,30.5 170.5,31.5C 170.5,33.5 170.5,35.5 170.5,37.5C 170.826,46.3494 170.493,55.0161 169.5,63.5C 168.248,61.9991 167.248,60.3325 166.5,58.5C 167.493,49.6822 167.827,40.6822 167.5,31.5C 168.167,30.1667 169.167,29.1667 170.5,28.5 Z"/></g>
<g><path style="opacity:1" fill="#9e713a" d="M 23.5,18.5 C 24.1667,18.5 24.5,18.8333 24.5,19.5C 19.2078,21.3895 15.7078,25.0562 14,30.5C 13.3333,44.5 13.3333,58.5 14,72.5C 15.5844,77.2371 18.4177,80.9038 22.5,83.5C 22.5,84.1667 22.1667,84.5 21.5,84.5C 11.3296,78.808 5.16295,70.1414 3,58.5C 0.6256,40.245 7.45893,26.9117 23.5,18.5 Z"/></g>
<g><path style="opacity:1" fill="#a47b3e" d="M 167.5,31.5 C 167.827,40.6822 167.493,49.6822 166.5,58.5C 162.468,51.7024 160.968,44.369 162,36.5C 163.704,34.6266 165.537,32.9599 167.5,31.5 Z"/></g>
<g><path style="opacity:1" fill="#c0a260" d="M 195.5,23.5 C 196.482,26.9619 196.815,30.6286 196.5,34.5C 191.807,34.6168 187.807,36.2835 184.5,39.5C 184.784,37.5853 184.451,35.9187 183.5,34.5C 184.694,33.7281 185.694,32.7281 186.5,31.5C 190.192,31.6757 192.192,30.0091 192.5,26.5C 193.167,25.1667 194.167,24.1667 195.5,23.5 Z"/></g>
<g><path style="opacity:1" fill="#dfcd84" d="M 399.5,23.5 C 383.834,19.4171 373,24.7504 367,39.5C 366.333,54.1667 366.333,68.8333 367,83.5C 368.26,90.3656 371.76,95.6989 377.5,99.5C 377.5,100.167 377.167,100.5 376.5,100.5C 361.846,92.0438 354.513,79.2105 354.5,62C 355.073,38.6349 366.739,24.8016 389.5,20.5C 393.122,20.952 396.455,21.952 399.5,23.5 Z"/></g>
<g><path style="opacity:1" fill="#c3a665" d="M 216.5,31.5 C 221.495,32.6648 225.495,35.3315 228.5,39.5C 227.549,40.9187 227.216,42.5853 227.5,44.5C 223.5,41.5 219.5,38.5 215.5,35.5C 215.232,33.901 215.566,32.5676 216.5,31.5 Z"/></g>
<g><path style="opacity:1" fill="#e6d78e" d="M 399.5,23.5 C 410.363,27.1942 417.863,34.5275 422,45.5C 429.013,66.9615 423.846,84.7948 406.5,99C 398.723,103.265 390.39,104.598 381.5,103C 379.509,102.626 377.842,101.793 376.5,100.5C 377.167,100.5 377.5,100.167 377.5,99.5C 381.161,101.718 385.161,102.718 389.5,102.5C 401.529,102.078 409.029,96.0784 412,84.5C 412.667,69.5 412.667,54.5 412,39.5C 409.961,32.3824 405.794,27.0491 399.5,23.5 Z"/></g>
<g><path style="opacity:1" fill="#fbfaf6" d="M 170.5,31.5 C 174.562,32.4954 178.396,33.162 182,33.5C 183.33,32.4178 184.83,31.7512 186.5,31.5C 185.694,32.7281 184.694,33.7281 183.5,34.5C 179.9,36.4302 176.9,39.0969 174.5,42.5C 175.083,44.0016 175.916,45.3349 177,46.5C 179.37,43.9614 181.87,41.6281 184.5,39.5C 187.807,36.2835 191.807,34.6168 196.5,34.5C 196.5,35.8333 197.167,36.5 198.5,36.5C 200.966,37.6341 203.633,37.8007 206.5,37C 208.32,36.7996 209.653,35.9663 210.5,34.5C 212.117,35.038 213.784,35.3713 215.5,35.5C 219.5,38.5 223.5,41.5 227.5,44.5C 234.548,53.6023 236.215,63.6023 232.5,74.5C 230.48,80.6598 226.814,85.8265 221.5,90C 223.365,91.3014 225.365,91.6347 227.5,91C 230.094,88.9135 232.094,86.4135 233.5,83.5C 233.833,83.5 234.167,83.5 234.5,83.5C 234.611,84.1174 234.944,84.6174 235.5,85C 233.981,86.3513 232.648,87.8513 231.5,89.5C 233.376,90.9902 234.043,92.6569 233.5,94.5C 231.5,94.5 229.5,94.5 227.5,94.5C 223.5,92.8333 219.5,91.1667 215.5,89.5C 212.269,91.2199 209.436,93.5532 207,96.5C 206.761,97.788 207.261,98.788 208.5,99.5C 207.107,100.26 205.607,100.926 204,101.5C 202.93,101.472 202.097,101.139 201.5,100.5C 204.999,100.741 205.332,99.9076 202.5,98C 203.167,97.3333 203.833,96.6667 204.5,96C 201.854,95.5026 199.187,95.3359 196.5,95.5C 191.67,93.5988 186.67,91.9322 181.5,90.5C 180.624,90.6309 179.957,90.2975 179.5,89.5C 180.428,88.2322 180.595,86.8989 180,85.5C 176.711,81.907 174.211,77.907 172.5,73.5C 171.215,70.5264 169.882,67.5264 168.5,64.5C 168.5,63.8333 168.833,63.5 169.5,63.5C 170.604,65.3885 171.937,67.0552 173.5,68.5C 174.604,70.3885 175.937,72.0552 177.5,73.5C 179.887,77.3974 182.887,80.8974 186.5,84C 186.05,85.2853 185.383,86.452 184.5,87.5C 184.957,88.2975 185.624,88.6309 186.5,88.5C 187.568,89.4345 188.901,89.7678 190.5,89.5C 191.919,90.4511 193.585,90.7845 195.5,90.5C 198.054,91.388 200.721,91.7214 203.5,91.5C 202.914,84.7355 201.747,78.0688 200,71.5C 198.955,72.3734 198.122,73.3734 197.5,74.5C 194.697,74.0387 192.363,72.7053 190.5,70.5C 190.262,68.5956 189.262,67.2623 187.5,66.5C 184.848,62.5181 181.848,58.8514 178.5,55.5C 177.528,52.5634 176.195,49.8967 174.5,47.5C 172.949,44.1642 171.615,40.8309 170.5,37.5C 170.5,35.5 170.5,33.5 170.5,31.5 Z"/></g>
<g><path style="opacity:1" fill="#e5d68e" d="M 195.5,41.5 C 197.641,40.8367 199.975,40.5034 202.5,40.5C 206.141,40.3148 209.474,40.9814 212.5,42.5C 210.302,42.4088 209.969,43.0755 211.5,44.5C 206.636,42.3305 201.636,41.9971 196.5,43.5C 196.672,42.5084 196.338,41.8417 195.5,41.5 Z"/></g>
<g><path style="opacity:1" fill="#a57b41" d="M 183.5,34.5 C 184.451,35.9187 184.784,37.5853 184.5,39.5C 181.87,41.6281 179.37,43.9614 177,46.5C 175.916,45.3349 175.083,44.0016 174.5,42.5C 176.9,39.0969 179.9,36.4302 183.5,34.5 Z"/></g>
<g><path style="opacity:1" fill="#c8ad68" d="M 170.5,37.5 C 171.615,40.8309 172.949,44.1642 174.5,47.5C 174.825,54.6866 174.491,61.6866 173.5,68.5C 171.937,67.0552 170.604,65.3885 169.5,63.5C 170.493,55.0161 170.826,46.3494 170.5,37.5 Z"/></g>
<g><path style="opacity:1" fill="#c3a668" d="M 195.5,41.5 C 196.338,41.8417 196.672,42.5084 196.5,43.5C 193.497,44.6662 190.83,46.3328 188.5,48.5C 188.5,47.5 188.5,46.5 188.5,45.5C 190.35,43.4284 192.683,42.0951 195.5,41.5 Z"/></g>
<g><path style="opacity:1" fill="#cbb16f" d="M 201.5,45.5 C 202.5,45.5 203.5,45.5 204.5,45.5C 204.5,47.8333 204.5,50.1667 204.5,52.5C 203.5,52.5 202.5,52.5 201.5,52.5C 201.5,50.1667 201.5,47.8333 201.5,45.5 Z"/></g>
<g><path style="opacity:1" fill="#a3793f" d="M 188.5,45.5 C 188.5,46.5 188.5,47.5 188.5,48.5C 186.281,50.5755 184.281,52.9088 182.5,55.5C 181.692,55.1924 181.025,54.6924 180.5,54C 182.667,50.6671 185.334,47.8337 188.5,45.5 Z"/></g>
<g><path style="opacity:1" fill="#a3783f" d="M 228.5,39.5 C 234.044,44.5774 237.544,50.9108 239,58.5C 239.667,61.8333 239.667,65.1667 239,68.5C 237.595,73.5476 236.095,78.5476 234.5,83.5C 234.167,83.5 233.833,83.5 233.5,83.5C 232.523,80.7131 232.19,77.7131 232.5,74.5C 236.215,63.6023 234.548,53.6023 227.5,44.5C 227.216,42.5853 227.549,40.9187 228.5,39.5 Z"/></g>
<g><path style="opacity:1" fill="#b89659" d="M 197.5,47.5 C 197.5,49.8333 197.5,52.1667 197.5,54.5C 196.467,53.0883 195.801,51.4216 195.5,49.5C 195.747,48.2867 196.414,47.62 197.5,47.5 Z"/></g>
<g><path style="opacity:1" fill="#dcc98d" d="M 211.5,48.5 C 212.334,50.2632 211.834,51.9299 210,53.5C 209.387,51.5048 209.887,49.8381 211.5,48.5 Z"/></g>
<g><path style="opacity:1" fill="#dac67d" d="M 174.5,47.5 C 176.195,49.8967 177.528,52.5634 178.5,55.5C 178.823,61.69 178.49,67.69 177.5,73.5C 175.937,72.0552 174.604,70.3885 173.5,68.5C 174.491,61.6866 174.825,54.6866 174.5,47.5 Z"/></g>
<g><path style="opacity:1" fill="#d7c183" d="M 216.5,55.5 C 217.239,55.369 217.906,55.5357 218.5,56C 217.421,56.956 216.255,57.7894 215,58.5C 214.761,57.212 215.261,56.212 216.5,55.5 Z"/></g>
<g><path style="opacity:1" fill="#d8c485" d="M 187.5,56.5 C 189.263,55.6655 190.93,56.1655 192.5,58C 190.718,58.1218 189.052,57.6218 187.5,56.5 Z"/></g>
<g><path style="opacity:1" fill="#c6a967" d="M 208.5,61.5 C 208.5,59.8333 208.5,58.1667 208.5,56.5C 209.751,54.439 211.418,54.1057 213.5,55.5C 212.533,58.1292 210.867,60.1292 208.5,61.5 Z"/></g>
<g><path style="opacity:1" fill="#c0a15f" d="M 464.5,41.5 C 470.261,55.3478 476.261,69.0145 482.5,82.5C 482.5,83.1667 482.833,83.5 483.5,83.5C 481.434,87.9656 479.1,92.299 476.5,96.5C 471.252,86.0917 466.586,75.4251 462.5,64.5C 463.598,56.9509 463.598,49.4509 462.5,42C 463.094,41.5357 463.761,41.369 464.5,41.5 Z"/></g>
<g><path style="opacity:1" fill="#aa824b" d="M 212.5,42.5 C 224.381,47.9494 229.214,57.2827 227,70.5C 225.846,74.8144 223.679,78.4811 220.5,81.5C 219.662,81.1583 219.328,80.4916 219.5,79.5C 225.986,69.9722 226.152,60.3055 220,50.5C 217.564,47.8915 214.731,45.8915 211.5,44.5C 209.969,43.0755 210.302,42.4088 212.5,42.5 Z"/></g>
<g><path style="opacity:1" fill="#ece094" d="M 178.5,55.5 C 181.848,58.8514 184.848,62.5181 187.5,66.5C 187.38,73.5127 187.046,80.8461 186.5,88.5C 185.624,88.6309 184.957,88.2975 184.5,87.5C 185.383,86.452 186.05,85.2853 186.5,84C 182.887,80.8974 179.887,77.3974 177.5,73.5C 178.49,67.69 178.823,61.69 178.5,55.5 Z"/></g>
<g><path style="opacity:1" fill="#d9c583" d="M 197.5,47.5 C 199.892,51.2784 202.059,55.2784 204,59.5C 205.615,58.6138 207.115,57.6138 208.5,56.5C 208.5,58.1667 208.5,59.8333 208.5,61.5C 207.412,65.1036 205.079,66.9369 201.5,67C 198.856,63.3103 197.523,59.1437 197.5,54.5C 197.5,52.1667 197.5,49.8333 197.5,47.5 Z"/></g>
<g><path style="opacity:1" fill="#d7c28a" d="M 187.5,63.5 C 189.093,62.1328 190.426,62.4661 191.5,64.5C 191.167,64.8333 190.833,65.1667 190.5,65.5C 189.482,64.8075 188.482,64.1408 187.5,63.5 Z"/></g>
<g><path style="opacity:1" fill="#fefdfc" d="M 201.5,63.5 C 202.675,63.281 203.675,63.6143 204.5,64.5C 202.948,65.7979 201.948,65.4646 201.5,63.5 Z"/></g>
<g><path style="opacity:1" fill="#d6c185" d="M 215.5,62.5 C 217.527,62.3379 219.527,62.5045 221.5,63C 222.833,64 222.833,65 221.5,66C 219.5,66.6667 217.5,66.6667 215.5,66C 214.316,64.8545 214.316,63.6879 215.5,62.5 Z"/></g>
<g><path style="opacity:1" fill="#c0a261" d="M 303.5,22.5 C 303.842,21.6618 304.508,21.3284 305.5,21.5C 321.769,26.0365 326.935,36.3698 321,52.5C 317.734,56.755 313.568,59.9217 308.5,62C 318.036,64.2023 323.869,70.0357 326,79.5C 326.333,85.5 326.667,91.5 327,97.5C 328.159,100.493 330.325,102.16 333.5,102.5C 333.5,102.833 333.5,103.167 333.5,103.5C 322.693,102.178 316.193,96.178 314,85.5C 313.667,79.5 313.333,73.5 313,67.5C 311.688,64.7615 309.522,63.4282 306.5,63.5C 305.833,62.8333 305.167,62.1667 304.5,61.5C 307.148,61.2615 308.982,59.9282 310,57.5C 312,46.8333 312,36.1667 310,25.5C 308.266,23.5494 306.099,22.5494 303.5,22.5 Z"/></g>
<g><path style="opacity:1" fill="#dfd0b6" d="M 512.5,24.5 C 513.167,24.5 513.5,24.8333 513.5,25.5C 503.5,44.8333 493.5,64.1667 483.5,83.5C 482.833,83.5 482.5,83.1667 482.5,82.5C 492.5,63.1667 502.5,43.8333 512.5,24.5 Z"/></g>
<g><path style="opacity:1" fill="#a47a3f" d="M 168.5,64.5 C 169.882,67.5264 171.215,70.5264 172.5,73.5C 173.01,76.3878 172.344,78.7211 170.5,80.5C 168.256,75.0294 167.089,69.3627 167,63.5C 167.383,64.056 167.883,64.3893 168.5,64.5 Z"/></g>
<g><path style="opacity:1" fill="#d7c279" d="M 187.5,66.5 C 189.262,67.2623 190.262,68.5956 190.5,70.5C 190.5,76.8333 190.5,83.1667 190.5,89.5C 188.901,89.7678 187.568,89.4345 186.5,88.5C 187.046,80.8461 187.38,73.5127 187.5,66.5 Z"/></g>
<g><path style="opacity:1" fill="#d7c287" d="M 213.5,71.5 C 215.263,70.6655 216.93,71.1655 218.5,73C 216.718,73.1218 215.052,72.6218 213.5,71.5 Z"/></g>
<g><path style="opacity:1" fill="#c3a562" d="M 190.5,70.5 C 192.363,72.7053 194.697,74.0387 197.5,74.5C 195.63,79.5318 194.963,84.8652 195.5,90.5C 193.585,90.7845 191.919,90.4511 190.5,89.5C 190.5,83.1667 190.5,76.8333 190.5,70.5 Z"/></g>
<g><path style="opacity:1" fill="#aa8246" d="M 195.5,90.5 C 194.963,84.8652 195.63,79.5318 197.5,74.5C 198.122,73.3734 198.955,72.3734 200,71.5C 201.747,78.0688 202.914,84.7355 203.5,91.5C 200.721,91.7214 198.054,91.388 195.5,90.5 Z"/></g>
<g><path style="opacity:1" fill="#e3d7c5" d="M 305.5,21.5 C 304.508,21.3284 303.842,21.6618 303.5,22.5C 294.833,22.5 286.167,22.5 277.5,22.5C 277.5,35.5 277.5,48.5 277.5,61.5C 286.5,61.5 295.5,61.5 304.5,61.5C 305.167,62.1667 305.833,62.8333 306.5,63.5C 296.833,63.5 287.167,63.5 277.5,63.5C 277.5,76.5 277.5,89.5 277.5,102.5C 281.226,102.177 284.893,102.511 288.5,103.5C 276.514,104.666 264.514,104.833 252.5,104C 256.297,102.576 260.297,102.076 264.5,102.5C 268.298,103.483 272.298,103.817 276.5,103.5C 276.5,76.1667 276.5,48.8333 276.5,21.5C 272.298,21.1832 268.298,21.5166 264.5,22.5C 260.445,22.8242 256.445,22.4909 252.5,21.5C 270.329,20.1727 287.995,20.1727 305.5,21.5 Z"/></g>
<g><path style="opacity:1" fill="#c0a263" d="M 172.5,73.5 C 174.211,77.907 176.711,81.907 180,85.5C 180.595,86.8989 180.428,88.2322 179.5,89.5C 179.957,90.2975 180.624,90.6309 181.5,90.5C 181.672,91.4916 181.338,92.1583 180.5,92.5C 176.096,89.4264 172.763,85.4264 170.5,80.5C 172.344,78.7211 173.01,76.3878 172.5,73.5 Z"/></g>
<g><path style="opacity:1" fill="#dac689" d="M 209.5,75.5 C 211.416,76.6653 212.249,78.332 212,80.5C 210.117,79.3474 209.284,77.6807 209.5,75.5 Z"/></g>
<g><path style="opacity:1" fill="#b59255" d="M 232.5,74.5 C 232.19,77.7131 232.523,80.7131 233.5,83.5C 232.094,86.4135 230.094,88.9135 227.5,91C 225.365,91.6347 223.365,91.3014 221.5,90C 226.814,85.8265 230.48,80.6598 232.5,74.5 Z"/></g>
<g><path style="opacity:1" fill="#e4d7b9" d="M 236.5,94.5 C 235.5,94.5 234.5,94.5 233.5,94.5C 234.043,92.6569 233.376,90.9902 231.5,89.5C 232.648,87.8513 233.981,86.3513 235.5,85C 234.944,84.6174 234.611,84.1174 234.5,83.5C 236.594,81.4407 238.428,79.1074 240,76.5C 240.944,77.263 241.444,78.263 241.5,79.5C 240.577,81.1285 240.243,82.6285 240.5,84C 243.167,84.6667 243.167,85.3333 240.5,86C 242.891,86.6914 242.891,87.6914 240.5,89C 240.833,89.3333 241.167,89.6667 241.5,90C 240.349,92.2003 238.682,93.7003 236.5,94.5 Z"/></g>
<g><path style="opacity:1" fill="#d2bb79" d="M 338.5,85.5 C 346.121,85.9463 348.621,89.9463 346,97.5C 345.268,99.9232 343.768,101.09 341.5,101C 345.163,97.9142 344.163,96.5808 338.5,97C 335.311,95.4556 334.145,92.9556 335,89.5C 336.376,88.2949 337.542,86.9616 338.5,85.5 Z"/></g>
<g><path style="opacity:1" fill="#ddcca8" d="M 22.5,83.5 C 28.5344,86.6037 34.8678,87.2703 41.5,85.5C 42.5,85.5 43.5,85.5 44.5,85.5C 40.5197,89.2524 38.353,93.9191 38,99.5C 36.786,94.6566 37.9527,90.49 41.5,87C 36.9097,87.5429 32.243,87.5429 27.5,87C 25.1484,86.7599 23.1484,85.9265 21.5,84.5C 22.1667,84.5 22.5,84.1667 22.5,83.5 Z"/></g>
<g><path style="opacity:1" fill="#dcc988" d="M 219.5,79.5 C 219.328,80.4916 219.662,81.1583 220.5,81.5C 216.594,86.0483 211.594,88.3817 205.5,88.5C 205.5,87.5 205.5,86.5 205.5,85.5C 211.13,85.6012 215.796,83.6012 219.5,79.5 Z"/></g>
<g><path style="opacity:1" fill="#e6d88d" d="M 181.5,90.5 C 186.67,91.9322 191.67,93.5988 196.5,95.5C 194.824,96.1834 194.157,97.5168 194.5,99.5C 189.279,98.2227 184.612,95.8894 180.5,92.5C 181.338,92.1583 181.672,91.4916 181.5,90.5 Z"/></g>
<g><path style="opacity:1" fill="#dbc886" d="M 52.5,106.5 C 53.6253,104.871 54.9586,103.371 56.5,102C 49.3923,103.382 47.059,100.548 49.5,93.5C 54.4113,90.1564 57.4113,91.4897 58.5,97.5C 58.6403,102.076 56.6403,105.076 52.5,106.5 Z"/></g>
<g><path style="opacity:1" fill="#e8d98d" d="M 215.5,89.5 C 219.5,91.1667 223.5,92.8333 227.5,94.5C 227.5,97.1667 227.5,99.8333 227.5,102.5C 225.866,103.161 224.033,103.494 222,103.5C 218.85,103.64 216.017,102.973 213.5,101.5C 215.423,97.9707 216.089,93.9707 215.5,89.5 Z"/></g>
<g><path style="opacity:1" fill="#d0b973" d="M 227.5,94.5 C 229.5,94.5 231.5,94.5 233.5,94.5C 234.5,94.5 235.5,94.5 236.5,94.5C 234.1,97.9031 231.1,100.57 227.5,102.5C 227.5,99.8333 227.5,97.1667 227.5,94.5 Z"/></g>
<g><path style="opacity:1" fill="#b38f4e" d="M 215.5,89.5 C 216.089,93.9707 215.423,97.9707 213.5,101.5C 211.95,100.559 210.284,99.8925 208.5,99.5C 207.261,98.788 206.761,97.788 207,96.5C 209.436,93.5532 212.269,91.2199 215.5,89.5 Z"/></g>
<g><path style="opacity:1" fill="#b39053" d="M 196.5,95.5 C 199.187,95.3359 201.854,95.5026 204.5,96C 203.833,96.6667 203.167,97.3333 202.5,98C 205.332,99.9076 204.999,100.741 201.5,100.5C 199.05,100.702 196.717,100.369 194.5,99.5C 194.157,97.5168 194.824,96.1834 196.5,95.5 Z"/></g>
<g><path style="opacity:1" fill="#e4d6b2" d="M 333.5,103.5 C 333.5,103.167 333.5,102.833 333.5,102.5C 339.598,102.174 340.265,102.841 335.5,104.5C 334.817,104.137 334.15,103.804 333.5,103.5 Z"/></g>
<g><path style="opacity:1" fill="#ede4c9" d="M 443.5,102.5 C 443.833,103.833 444.167,103.833 444.5,102.5C 459.03,103.208 458.864,103.874 444,104.5C 429.136,103.874 428.97,103.208 443.5,102.5 Z"/></g>
<g><path style="opacity:1" fill="#dac9b3" d="M 513.5,102.5 C 513.5,103.167 513.833,103.5 514.5,103.5C 518.702,103.817 522.702,103.483 526.5,102.5C 530.226,102.177 533.893,102.511 537.5,103.5C 525.833,104.833 514.167,104.833 502.5,103.5C 506.107,102.511 509.774,102.177 513.5,102.5 Z"/></g>
<g><path style="opacity:1" fill="#e3d5ac" d="M 52.5,106.5 C 51.2067,107.158 49.7067,107.492 48,107.5C 45.9493,107.577 44.116,107.077 42.5,106C 45.7462,106.317 49.0795,106.483 52.5,106.5 Z"/></g>
</svg>
