<?xml version="1.0" encoding="UTF-8"?>
<!DOCTYPE svg PUBLIC "-//W3C//DTD SVG 1.1//EN" "http://www.w3.org/Graphics/SVG/1.1/DTD/svg11.dtd">
<svg xmlns="http://www.w3.org/2000/svg" version="1.1" width="99px" height="109px" style="shape-rendering:geometricPrecision; text-rendering:geometricPrecision; image-rendering:optimizeQuality; fill-rule:evenodd; clip-rule:evenodd" xmlns:xlink="http://www.w3.org/1999/xlink">
<g><path style="opacity:1" fill="#fefefe" d="M -0.5,-0.5 C 32.5,-0.5 65.5,-0.5 98.5,-0.5C 98.5,35.8333 98.5,72.1667 98.5,108.5C 65.5,108.5 32.5,108.5 -0.5,108.5C -0.5,72.1667 -0.5,35.8333 -0.5,-0.5 Z"/></g>
<g><path style="opacity:1" fill="#d2aa42" d="M 83.5,71.5 C 82.8333,71.5 82.5,71.8333 82.5,72.5C 80.2167,75.9563 77.7167,79.2896 75,82.5C 73.1839,81.6705 71.3506,80.8372 69.5,80C 83.914,66.8655 86.414,51.6988 77,34.5C 72.1505,28.3225 65.9838,23.9891 58.5,21.5C 52.766,25.4456 47.0994,25.4456 41.5,21.5C 34.2752,23.9423 28.2752,28.1089 23.5,34C 22.6683,34.6877 22.0016,34.521 21.5,33.5C 20.5153,31.9017 20.3486,30.235 21,28.5C 25.4502,24.2019 30.2835,20.5352 35.5,17.5C 37.9154,14.8997 40.2487,12.0663 42.5,9C 47.4839,7.07945 52.4839,7.07945 57.5,9C 60.0648,11.2949 61.7314,14.1282 62.5,17.5C 82.1268,26.0768 90.2935,41.0768 87,62.5C 85.7273,65.4893 84.5606,68.4893 83.5,71.5 Z"/></g>
<g><path style="opacity:1" fill="#e9d39c" d="M 34.5,17.5 C 33.1266,17.3433 31.7932,17.51 30.5,18C 28.8156,19.7396 26.9823,20.9063 25,21.5C 22.0506,20.5629 19.2173,19.5629 16.5,18.5C 15.8902,17.609 15.5569,16.609 15.5,15.5C 16.976,13.5 18.8094,11.8334 21,10.5C 22.1475,11.4581 23.1475,11.1247 24,9.5C 24.9707,10.1984 26.1374,10.1984 27.5,9.5C 31.1708,10.1839 34.3375,11.1839 37,12.5C 36.9421,14.4354 36.1088,16.1021 34.5,17.5 Z"/></g>
<g><path style="opacity:1" fill="#fcfaf4" d="M 45.5,13.5 C 48.5719,13.1826 51.5719,13.5159 54.5,14.5C 53,14.8333 51.5,15.1667 50,15.5C 48.0145,15.4313 46.5145,14.7647 45.5,13.5 Z"/></g>
<g><path style="opacity:1" fill="#d0a73a" d="M 15.5,15.5 C 15.5569,16.609 15.8902,17.609 16.5,18.5C 15.8476,19.4486 15.5143,20.6153 15.5,22C 20.2494,38.9923 29.4161,53.159 43,64.5C 44.3333,63.1667 45.6667,61.8333 47,60.5C 48.7091,67.7543 49.8758,75.0877 50.5,82.5C 43.3885,81.2067 36.3885,79.7067 29.5,78C 31.3293,76.8867 32.1626,75.3867 32,73.5C 25.9289,66.9363 20.0956,60.2697 14.5,53.5C 12.7143,49.9286 10.8809,46.2619 9,42.5C 2.66099,31.306 4.82765,22.306 15.5,15.5 Z"/></g>
<g><path style="opacity:1" fill="#eedeb5" d="M 43.5,16.5 C 45.4759,17.4271 45.8092,18.7605 44.5,20.5C 43.5713,19.3112 43.238,17.9778 43.5,16.5 Z"/></g>
<g><path style="opacity:1" fill="#f6edd8" d="M 55.5,16.5 C 56.7965,17.8488 56.6298,19.1821 55,20.5C 54.4209,19.0715 54.5876,17.7382 55.5,16.5 Z"/></g>
<g><path style="opacity:1" fill="#edd9aa" d="M 46.5,17.5 C 47.7079,18.2341 49.0413,18.5674 50.5,18.5C 48.0113,24.057 46.678,23.7237 46.5,17.5 Z"/></g>
<g><path style="opacity:1" fill="#fdfbf6" d="M 34.5,17.5 C 34.8333,17.5 35.1667,17.5 35.5,17.5C 30.2835,20.5352 25.4502,24.2019 21,28.5C 20.3486,30.235 20.5153,31.9017 21.5,33.5C 22.0016,34.521 22.6683,34.6877 23.5,34C 28.2752,28.1089 34.2752,23.9423 41.5,21.5C 47.0994,25.4456 52.766,25.4456 58.5,21.5C 65.9838,23.9891 72.1505,28.3225 77,34.5C 86.414,51.6988 83.914,66.8655 69.5,80C 71.3506,80.8372 73.1839,81.6705 75,82.5C 77.7167,79.2896 80.2167,75.9563 82.5,72.5C 83.2674,73.172 83.9341,74.0053 84.5,75C 83.1667,76.3333 81.8333,77.6667 80.5,79C 80.8541,80.6255 80.8541,82.4588 80.5,84.5C 79.5,84.5 78.5,84.5 77.5,84.5C 72.2289,83.7005 67.2289,82.0338 62.5,79.5C 58.7529,81.7392 55.4196,84.5726 52.5,88C 53.056,88.3826 53.3893,88.8826 53.5,89.5C 52.8333,89.5 52.5,89.8333 52.5,90.5C 49.8269,90.3155 49.1602,89.1489 50.5,87C 41.6516,85.2364 32.9849,82.903 24.5,80C 25.3567,79.3109 26.0233,78.4776 26.5,77.5C 21.7379,70.2002 17.7379,62.5336 14.5,54.5C 14.5,54.1667 14.5,53.8333 14.5,53.5C 20.0956,60.2697 25.9289,66.9363 32,73.5C 32.1626,75.3867 31.3293,76.8867 29.5,78C 36.3885,79.7067 43.3885,81.2067 50.5,82.5C 49.8758,75.0877 48.7091,67.7543 47,60.5C 45.6667,61.8333 44.3333,63.1667 43,64.5C 29.4161,53.159 20.2494,38.9923 15.5,22C 15.5143,20.6153 15.8476,19.4486 16.5,18.5C 19.2173,19.5629 22.0506,20.5629 25,21.5C 26.9823,20.9063 28.8156,19.7396 30.5,18C 31.7932,17.51 33.1266,17.3433 34.5,17.5 Z"/></g>
<g><path style="opacity:1" fill="#d3ad48" d="M 45.5,27.5 C 65.6826,27.5146 75.5159,37.5146 75,57.5C 72.4672,69.8673 64.9672,76.8673 52.5,78.5C 52.5,77.5 52.5,76.5 52.5,75.5C 62.4368,74.3998 68.9368,69.0665 72,59.5C 74.094,42.6022 66.7607,32.9355 50,30.5C 40.3012,31.2668 33.1345,35.9334 28.5,44.5C 26.1147,43.1866 25.9481,41.5199 28,39.5C 32.5048,33.3482 38.3381,29.3482 45.5,27.5 Z"/></g>
<g><path style="opacity:1" fill="#cfa636" d="M 48.5,33.5 C 49.5,33.5 50.5,33.5 51.5,33.5C 51.5,35.8333 51.5,38.1667 51.5,40.5C 50.5,40.5 49.5,40.5 48.5,40.5C 48.5,38.1667 48.5,35.8333 48.5,33.5 Z"/></g>
<g><path style="opacity:1" fill="#d6b253" d="M 58.5,36.5 C 59.7122,38.2637 59.3788,39.9303 57.5,41.5C 56.7992,39.8084 57.1325,38.1417 58.5,36.5 Z"/></g>
<g><path style="opacity:1" fill="#d2ab44" d="M 42.5,35.5 C 43.675,35.281 44.675,35.6143 45.5,36.5C 47.0761,40.6501 48.9095,44.6501 51,48.5C 53.5096,45.3354 56.6763,43.3354 60.5,42.5C 58.574,47.6154 55.574,52.1154 51.5,56C 48.5243,56.7572 46.691,55.5906 46,52.5C 44.3052,46.9226 43.1385,41.2559 42.5,35.5 Z"/></g>
<g><path style="opacity:1" fill="#dab963" d="M 33.5,43.5 C 35.3936,44.0476 37.0603,45.0476 38.5,46.5C 37.9984,47.521 37.3317,47.6877 36.5,47C 34.9371,46.2411 33.9371,45.0744 33.5,43.5 Z"/></g>
<g><path style="opacity:1" fill="#d8b358" d="M 64.5,43.5 C 66.337,43.6395 66.6704,44.3061 65.5,45.5C 60.5864,46.8694 60.253,46.2028 64.5,43.5 Z"/></g>
<g><path style="opacity:1" fill="#fbf8ef" d="M 49.5,51.5 C 51.6246,52.3676 51.7913,53.3676 50,54.5C 48.3167,53.8235 48.1501,52.8235 49.5,51.5 Z"/></g>
<g><path style="opacity:1" fill="#d4af4c" d="M 63.5,51.5 C 65.5273,51.3379 67.5273,51.5045 69.5,52C 70.8333,53 70.8333,54 69.5,55C 67.5,55.6667 65.5,55.6667 63.5,55C 62.3157,53.8545 62.3157,52.6879 63.5,51.5 Z"/></g>
<g><path style="opacity:1" fill="#d5b150" d="M 33.5,52.5 C 35.0927,51.1328 36.4261,51.4661 37.5,53.5C 37.1667,53.8333 36.8333,54.1667 36.5,54.5C 35.4822,53.8075 34.4822,53.1408 33.5,52.5 Z"/></g>
<g><path style="opacity:1" fill="#d7b356" d="M 61.5,61.5 C 63.2637,60.2878 64.9303,60.6212 66.5,62.5C 66.1667,62.8333 65.8333,63.1667 65.5,63.5C 64.3777,62.3698 63.0443,61.7031 61.5,61.5 Z"/></g>
<g><path style="opacity:1" fill="#d6b254" d="M 56.5,65.5 C 58.9076,66.3148 59.7409,67.9814 59,70.5C 57.9055,68.9221 57.0722,67.2554 56.5,65.5 Z"/></g>
<g><path style="opacity:1" fill="#ead49f" d="M 85.5,84.5 C 82.9103,85.0143 80.2436,85.0143 77.5,84.5C 78.5,84.5 79.5,84.5 80.5,84.5C 80.8541,82.4588 80.8541,80.6255 80.5,79C 81.8333,77.6667 83.1667,76.3333 84.5,75C 83.9341,74.0053 83.2674,73.172 82.5,72.5C 82.5,71.8333 82.8333,71.5 83.5,71.5C 84.5,71.5 85.5,71.5 86.5,71.5C 86.1281,68.9783 86.9614,66.9783 89,65.5C 89.3742,66.4162 89.8742,67.2496 90.5,68C 90.0419,71.2494 90.0419,74.2494 90.5,77C 88.1088,78.3086 88.1088,79.3086 90.5,80C 88.9168,81.7583 87.2501,83.2583 85.5,84.5 Z"/></g>
<g><path style="opacity:1" fill="#d0a73b" d="M 77.5,84.5 C 80.2436,85.0143 82.9103,85.0143 85.5,84.5C 82.6675,88.1652 79.3341,91.3318 75.5,94C 72.1667,94.6667 68.8333,94.6667 65.5,94C 61.3692,92.7645 57.3692,91.2645 53.5,89.5C 53.3893,88.8826 53.056,88.3826 52.5,88C 55.4196,84.5726 58.7529,81.7392 62.5,79.5C 67.2289,82.0338 72.2289,83.7005 77.5,84.5 Z"/></g>
<g><path style="opacity:1" fill="#d2aa40" d="M 14.5,54.5 C 17.7379,62.5336 21.7379,70.2002 26.5,77.5C 26.0233,78.4776 25.3567,79.3109 24.5,80C 32.9849,82.903 41.6516,85.2364 50.5,87C 49.1602,89.1489 49.8269,90.3155 52.5,90.5C 27.4291,90.6061 13.9291,77.9394 12,52.5C 12.7083,53.3805 13.5416,54.0472 14.5,54.5 Z"/></g>
</svg>
